<svg width="38" height="32" viewBox="0 0 38 32" fill="none" xmlns="http://www.w3.org/2000/svg">
<path d="M18.9991 31.8385C18.6171 31.8385 18.239 31.7615 17.8646 31.6075C17.4903 31.4538 17.166 31.2193 16.8916 30.904L1.36462 12.231C1.13129 11.9897 0.962625 11.7235 0.858625 11.4325C0.754958 11.1415 0.703125 10.8255 0.703125 10.4845C0.703125 10.2768 0.736458 10.0712 0.803125 9.8675C0.869792 9.6635 0.953125 9.45767 1.05312 9.25L4.84163 1.5345C5.05696 1.06017 5.39346 0.685832 5.85112 0.411499C6.30879 0.137166 6.79529 0 7.31062 0H30.6876C31.203 0 31.6895 0.137166 32.1471 0.411499C32.6048 0.685832 32.9541 1.06017 33.1951 1.5345L36.9836 9.25C37.058 9.45767 37.1285 9.6635 37.1951 9.8675C37.2618 10.0712 37.2951 10.2768 37.2951 10.4845C37.2951 10.8255 37.2433 11.1415 37.1396 11.4325C37.0356 11.7235 36.867 11.9897 36.6336 12.231L21.1451 30.904C20.8451 31.2193 20.508 31.4538 20.1336 31.6075C19.7593 31.7615 19.3811 31.8385 18.9991 31.8385ZM12.2451 10.231H25.7531L21.4261 1.5385H16.5721L12.2451 10.231ZM18.2301 30.127V11.769H2.99512L18.2301 30.127ZM19.7681 30.127L35.0416 11.769H19.7681V30.127ZM27.4876 10.231H35.7106L31.6916 2.231C31.589 2.02567 31.4351 1.859 31.2301 1.731C31.0248 1.60267 30.8068 1.5385 30.5761 1.5385H23.1221L27.4876 10.231ZM2.32612 10.231H10.5491L14.8761 1.5385H7.42213C7.19146 1.5385 6.97346 1.60267 6.76813 1.731C6.56313 1.859 6.40929 2.02567 6.30662 2.231L2.32612 10.231Z" fill="#D30034"/>
</svg>
