<svg width="48" height="48" viewBox="0 0 48 48" fill="none" xmlns="http://www.w3.org/2000/svg">
<path d="M24.0165 30.077C25.9628 30.077 27.6265 29.3817 29.0075 27.991C30.3881 26.6003 31.0785 24.9317 31.0785 22.985C31.0785 21.0387 30.3831 19.375 28.9925 17.994C27.6018 16.6133 25.9331 15.923 23.9865 15.923C22.0401 15.923 20.3765 16.6183 18.9955 18.009C17.6148 19.3997 16.9245 21.0683 16.9245 23.015C16.9245 24.9613 17.6198 26.625 19.0105 28.006C20.4011 29.3867 22.0698 30.077 24.0165 30.077ZM23.983 28.4845C22.4543 28.4845 21.1611 27.9495 20.1035 26.8795C19.0458 25.8095 18.517 24.5102 18.517 22.9815C18.517 21.4528 19.052 20.1597 20.122 19.102C21.192 18.0443 22.4913 17.5155 24.02 17.5155C25.5486 17.5155 26.8418 18.0505 27.8995 19.1205C28.9571 20.1905 29.486 21.4898 29.486 23.0185C29.486 24.5472 28.951 25.8403 27.881 26.898C26.811 27.9557 25.5116 28.4845 23.983 28.4845ZM24.0015 36C20.0398 36 16.4033 34.9257 13.092 32.777C9.7803 30.6283 7.09764 27.8565 5.04397 24.4615C4.88497 24.2132 4.77214 23.9695 4.70547 23.7305C4.6388 23.4912 4.60547 23.2457 4.60547 22.994C4.60547 22.742 4.6388 22.498 4.70547 22.262C4.77214 22.026 4.88497 21.7848 5.04397 21.5385C7.09764 18.1435 9.7803 15.3717 13.092 13.223C16.4033 11.0743 20.0398 10 24.0015 10C27.9631 10 31.5996 11.0743 34.911 13.223C38.2226 15.3717 40.9053 18.1435 42.959 21.5385C43.118 21.7868 43.2308 22.0305 43.2975 22.2695C43.3641 22.5088 43.3975 22.7543 43.3975 23.006C43.3975 23.258 43.3641 23.502 43.2975 23.738C43.2308 23.974 43.118 24.2152 42.959 24.4615C40.9053 27.8565 38.2226 30.6283 34.911 32.777C31.5996 34.9257 27.9631 36 24.0015 36ZM23.993 34.4615C27.9036 34.4615 31.4866 33.4275 34.742 31.3595C37.997 29.2915 40.4821 26.505 42.1975 23C40.4821 19.495 37.9998 16.7085 34.7505 14.6405C31.5008 12.5725 27.9206 11.5385 24.01 11.5385C20.0993 11.5385 16.5163 12.5725 13.261 14.6405C10.006 16.7085 7.51697 19.495 5.79397 23C7.51697 26.505 10.0031 29.2915 13.2525 31.3595C16.5021 33.4275 20.0823 34.4615 23.993 34.4615Z" fill="#D30034"/>
</svg>
