<svg width="26" height="34" viewBox="0 0 26 34" fill="none" xmlns="http://www.w3.org/2000/svg">
<path d="M13 33.7695C12.2283 33.7695 11.5842 33.5463 11.0675 33.1C10.5508 32.654 10.295 32.086 10.3 31.396H8.831C8.447 31.396 8.0945 31.2357 7.7735 30.915C7.45283 30.594 7.2925 30.2415 7.2925 29.8575V23.823C5.0925 22.595 3.41033 20.9732 2.246 18.9575C1.082 16.9422 0.5 14.7897 0.5 12.5C0.5 9.005 1.70967 6.048 4.129 3.629C6.548 1.20967 9.505 0 13 0C16.495 0 19.452 1.20967 21.871 3.629C24.2903 6.048 25.5 9.005 25.5 12.5C25.5 14.7897 24.9203 16.943 23.761 18.96C22.6017 20.977 20.9172 22.598 18.7075 23.823V29.8575C18.7075 30.2415 18.5472 30.594 18.2265 30.915C17.9055 31.2357 17.553 31.396 17.169 31.396H15.7C15.705 32.086 15.4492 32.654 14.9325 33.1C14.4158 33.5463 13.7717 33.7695 13 33.7695ZM8.831 29.8575H17.169V27.7345H8.831V29.8575ZM8.831 26.196H17.169V24.1575H8.831V26.196ZM8.381 22.619H12.273V15.6925L8.5 11.919C8.36933 11.7883 8.30583 11.6327 8.3095 11.452C8.3135 11.2713 8.38733 11.1027 8.531 10.946C8.67433 10.7897 8.8365 10.7115 9.0175 10.7115C9.19817 10.7115 9.36667 10.7897 9.523 10.946L13 14.4345L16.4885 10.946C16.6192 10.8153 16.7813 10.7455 16.975 10.7365C17.1687 10.7275 17.3437 10.8012 17.5 10.9575C17.6563 11.1142 17.7345 11.2808 17.7345 11.4575C17.7345 11.6345 17.6563 11.7883 17.5 11.919L13.727 15.6925V22.619H17.619C19.5167 21.737 21.0482 20.3897 22.2135 18.577C23.3788 16.764 23.9615 14.7385 23.9615 12.5005C23.9615 9.44617 22.898 6.85567 20.771 4.729C18.6443 2.602 16.054 1.5385 13 1.5385C9.946 1.5385 7.35567 2.602 5.229 4.729C3.102 6.85567 2.0385 9.44617 2.0385 12.5005C2.0385 14.7385 2.62117 16.764 3.7865 18.577C4.95183 20.3897 6.48333 21.737 8.381 22.619Z" fill="#D30034"/>
</svg>
