<svg width="24" height="46" viewBox="0 0 24 46" fill="none" xmlns="http://www.w3.org/2000/svg">
<g clip-path="url(#clip0_2316_2726)">
<path d="M12 36.7259C8.63077 36.7259 5.78769 35.5381 3.47077 33.1531C1.15385 30.768 0 27.8414 0 24.3731V12.3528C0 8.88453 1.15385 5.95786 3.47077 3.57282C5.78769 1.18777 8.63077 0 12 0C15.3692 0 18.2123 1.18777 20.5292 3.57282C22.8462 5.95786 24 8.88453 24 12.3528V24.3731C24 27.8414 22.8462 30.768 20.5292 33.1531C18.2123 35.5381 15.3692 36.7259 12 36.7259ZM21.9046 12.3528C21.9046 9.74923 21.0646 7.46871 19.3846 5.52076C17.7046 3.56331 15.5908 2.46106 13.0431 2.195H10.9477C8.4 2.46106 6.28615 3.56331 4.60615 5.52076C2.92615 7.47821 2.08615 9.74923 2.08615 12.3528V24.3731C2.08615 27.1952 3.04615 29.5993 4.97538 31.5852C6.90462 33.5712 9.24 34.5689 11.9723 34.5689C14.7046 34.5689 17.0492 33.5712 18.9877 31.5852C20.9262 29.5993 21.8954 27.1952 21.8954 24.3731V12.3528H21.9046Z" fill="#E8EAED"/>
<path d="M17.3174 40.8593C17.7235 40.4412 17.7235 39.7571 17.3174 39.339C16.9112 38.9209 16.2466 38.9209 15.8404 39.339L12.0004 43.2919L8.16045 39.339C7.75429 38.9209 7.08968 38.9209 6.68352 39.339C6.27737 39.7571 6.27737 40.4412 6.68352 40.8593L11.4651 45.7814C11.7604 46.0855 12.2404 46.0855 12.5358 45.7814L17.3174 40.8593Z" fill="#E8EAED"/>
<path d="M10.957 11.2791V6.86056C10.957 6.26193 11.4278 5.78682 12.0001 5.78682C12.5816 5.78682 13.0432 6.27143 13.0432 6.86056V11.2791C13.0432 11.8777 12.5724 12.3528 12.0001 12.3528C11.4186 12.3528 10.957 11.8682 10.957 11.2791Z" fill="#E8EAED"/>
</g>
<defs>
<clipPath id="clip0_2316_2726">
<rect width="24" height="46" fill="white"/>
</clipPath>
</defs>
</svg>
