<svg width="20" height="21" viewBox="0 0 20 21" fill="none" xmlns="http://www.w3.org/2000/svg">
<path d="M8.525 12.5354L6.075 10.0854C5.925 9.93538 5.74167 9.86038 5.525 9.86038C5.30833 9.86038 5.11667 9.94371 4.95 10.1104C4.8 10.2604 4.725 10.4437 4.725 10.6604C4.725 10.877 4.8 11.0604 4.95 11.2104L8 14.2854C8.15 14.4354 8.325 14.5104 8.525 14.5104C8.725 14.5104 8.9 14.4354 9.05 14.2854L15.025 8.31038C15.1917 8.14371 15.275 7.95204 15.275 7.73538C15.275 7.51871 15.1917 7.32704 15.025 7.16038C14.8583 7.01038 14.6625 6.93954 14.4375 6.94788C14.2125 6.95621 14.025 7.03538 13.875 7.18538L8.525 12.5354ZM10 20.2604C8.63333 20.2604 7.34167 19.9979 6.125 19.4729C4.90833 18.9479 3.84583 18.2312 2.9375 17.3229C2.02917 16.4145 1.3125 15.352 0.7875 14.1354C0.2625 12.9187 0 11.627 0 10.2604C0 8.87704 0.2625 7.57704 0.7875 6.36038C1.3125 5.14371 2.02917 4.08538 2.9375 3.18538C3.84583 2.28538 4.90833 1.57288 6.125 1.04788C7.34167 0.522876 8.63333 0.260376 10 0.260376C11.3833 0.260376 12.6833 0.522876 13.9 1.04788C15.1167 1.57288 16.175 2.28538 17.075 3.18538C17.975 4.08538 18.6875 5.14371 19.2125 6.36038C19.7375 7.57704 20 8.87704 20 10.2604C20 11.627 19.7375 12.9187 19.2125 14.1354C18.6875 15.352 17.975 16.4145 17.075 17.3229C16.175 18.2312 15.1167 18.9479 13.9 19.4729C12.6833 19.9979 11.3833 20.2604 10 20.2604ZM10 18.7604C12.3667 18.7604 14.375 17.9312 16.025 16.2729C17.675 14.6145 18.5 12.6104 18.5 10.2604C18.5 7.89371 17.675 5.88538 16.025 4.23538C14.375 2.58538 12.3667 1.76038 10 1.76038C7.65 1.76038 5.64583 2.58538 3.9875 4.23538C2.32917 5.88538 1.5 7.89371 1.5 10.2604C1.5 12.6104 2.32917 14.6145 3.9875 16.2729C5.64583 17.9312 7.65 18.7604 10 18.7604Z" fill="#D30034"/>
</svg>
