<svg width="20" height="20" viewBox="0 0 20 20" fill="none" xmlns="http://www.w3.org/2000/svg">
<path d="M10 20C8.63333 20 7.34167 19.7375 6.125 19.2125C4.90833 18.6875 3.84583 17.9708 2.9375 17.0625C2.02917 16.1542 1.3125 15.0917 0.7875 13.875C0.2625 12.6583 0 11.3667 0 10C0 8.61667 0.2625 7.31667 0.7875 6.1C1.3125 4.88333 2.02917 3.825 2.9375 2.925C3.84583 2.025 4.90833 1.3125 6.125 0.7875C7.34167 0.2625 8.63333 0 10 0C11.3833 0 12.6833 0.2625 13.9 0.7875C15.1167 1.3125 16.175 2.025 17.075 2.925C17.975 3.825 18.6875 4.88333 19.2125 6.1C19.7375 7.31667 20 8.61667 20 10C20 11.3667 19.7375 12.6583 19.2125 13.875C18.6875 15.0917 17.975 16.1542 17.075 17.0625C16.175 17.9708 15.1167 18.6875 13.9 19.2125C12.6833 19.7375 11.3833 20 10 20ZM10 18.5C12.3667 18.5 14.375 17.6708 16.025 16.0125C17.675 14.3542 18.5 12.35 18.5 10C18.5 7.63333 17.675 5.625 16.025 3.975C14.375 2.325 12.3667 1.5 10 1.5C7.65 1.5 5.64583 2.325 3.9875 3.975C2.32917 5.625 1.5 7.63333 1.5 10C1.5 12.35 2.32917 14.3542 3.9875 16.0125C5.64583 17.6708 7.65 18.5 10 18.5ZM9.975 17.175C10.1583 17.175 10.3167 17.1042 10.45 16.9625C10.5833 16.8208 10.65 16.6583 10.65 16.475V15.875C11.65 15.7583 12.4375 15.4208 13.0125 14.8625C13.5875 14.3042 13.875 13.5917 13.875 12.725C13.875 11.8583 13.6375 11.1667 13.1625 10.65C12.6875 10.1333 11.8667 9.68333 10.7 9.3C9.65 8.95 8.92917 8.60417 8.5375 8.2625C8.14583 7.92083 7.95 7.475 7.95 6.925C7.95 6.40833 8.1375 6.00417 8.5125 5.7125C8.8875 5.42083 9.4 5.275 10.05 5.275C10.45 5.275 10.8083 5.35 11.125 5.5C11.4417 5.65 11.7167 5.875 11.95 6.175C12.0667 6.30833 12.2083 6.4 12.375 6.45C12.5417 6.5 12.7 6.48333 12.85 6.4C13.0333 6.31667 13.1542 6.18333 13.2125 6C13.2708 5.81667 13.2417 5.65 13.125 5.5C12.8417 5.1 12.4958 4.78333 12.0875 4.55C11.6792 4.31667 11.2167 4.175 10.7 4.125V3.525C10.7 3.34167 10.6333 3.18333 10.5 3.05C10.3667 2.91667 10.2083 2.85 10.025 2.85C9.84167 2.85 9.67917 2.91667 9.5375 3.05C9.39583 3.18333 9.325 3.34167 9.325 3.525V4.125C8.475 4.24167 7.80417 4.55 7.3125 5.05C6.82083 5.55 6.575 6.175 6.575 6.925C6.575 7.74167 6.7875 8.39167 7.2125 8.875C7.6375 9.35833 8.425 9.81667 9.575 10.25C10.7583 10.7 11.5417 11.0917 11.925 11.425C12.3083 11.7583 12.5 12.1917 12.5 12.725C12.5 13.275 12.275 13.7375 11.825 14.1125C11.375 14.4875 10.825 14.675 10.175 14.675C9.625 14.675 9.12083 14.5417 8.6625 14.275C8.20417 14.0083 7.85 13.6333 7.6 13.15C7.51667 13.0167 7.40417 12.9125 7.2625 12.8375C7.12083 12.7625 6.975 12.75 6.825 12.8C6.60833 12.8833 6.4625 13.0125 6.3875 13.1875C6.3125 13.3625 6.33333 13.5417 6.45 13.725C6.78333 14.275 7.17917 14.7208 7.6375 15.0625C8.09583 15.4042 8.64167 15.6583 9.275 15.825V16.5C9.275 16.6833 9.34583 16.8417 9.4875 16.975C9.62917 17.1083 9.79167 17.175 9.975 17.175Z" fill="#D30034"/>
</svg>
