<svg width="16" height="12" viewBox="0 0 16 12" fill="none" xmlns="http://www.w3.org/2000/svg">
<path d="M9.5 11.3938C9.35 11.2438 9.275 11.0646 9.275 10.8563C9.275 10.6479 9.34167 10.4771 9.475 10.3438L13.15 6.66875H0.75C0.533333 6.66875 0.354167 6.59792 0.2125 6.45625C0.0708333 6.31458 0 6.13542 0 5.91875C0 5.70208 0.0708333 5.52292 0.2125 5.38125C0.354167 5.23958 0.533333 5.16875 0.75 5.16875H13.15L9.45 1.46875C9.3 1.31875 9.22917 1.14375 9.2375 0.94375C9.24583 0.74375 9.325 0.56875 9.475 0.41875C9.625 0.285417 9.80417 0.21875 10.0125 0.21875C10.2208 0.21875 10.3917 0.285417 10.525 0.41875L15.5 5.39375C15.5833 5.47708 15.6417 5.56042 15.675 5.64375C15.7083 5.72708 15.725 5.81875 15.725 5.91875C15.725 6.01875 15.7083 6.11042 15.675 6.19375C15.6417 6.27708 15.5833 6.36042 15.5 6.44375L10.55 11.3938C10.4 11.5438 10.225 11.6188 10.025 11.6188C9.825 11.6188 9.65 11.5438 9.5 11.3938Z" fill="white"/>
</svg>
