<svg width="16" height="12" viewBox="0 0 16 12" fill="none" xmlns="http://www.w3.org/2000/svg">
<path d="M9.5 11.3938C9.35 11.2438 9.275 11.0646 9.275 10.8563C9.275 10.648 9.34167 10.4771 9.475 10.3438L13.15 6.66881H0.75C0.533333 6.66881 0.354167 6.59798 0.2125 6.45631C0.0708333 6.31465 0 6.13548 0 5.91881C0 5.70215 0.0708333 5.52298 0.2125 5.38131C0.354167 5.23965 0.533333 5.16881 0.75 5.16881H13.15L9.45 1.46881C9.3 1.31881 9.22917 1.14381 9.2375 0.943811C9.24583 0.743811 9.325 0.568811 9.475 0.418811C9.625 0.285478 9.80417 0.218811 10.0125 0.218811C10.2208 0.218811 10.3917 0.285478 10.525 0.418811L15.5 5.39381C15.5833 5.47715 15.6417 5.56048 15.675 5.64381C15.7083 5.72715 15.725 5.81881 15.725 5.91881C15.725 6.01881 15.7083 6.11048 15.675 6.19381C15.6417 6.27715 15.5833 6.36048 15.5 6.44381L10.55 11.3938C10.4 11.5438 10.225 11.6188 10.025 11.6188C9.825 11.6188 9.65 11.5438 9.5 11.3938Z" fill="#D30034"/>
</svg>
