<svg width="20" height="21" viewBox="0 0 20 21" fill="none" xmlns="http://www.w3.org/2000/svg">
<path d="M8.525 13.2438L6.075 10.7938C5.925 10.6438 5.74167 10.5688 5.525 10.5688C5.30833 10.5688 5.11667 10.6521 4.95 10.8188C4.8 10.9688 4.725 11.1521 4.725 11.3688C4.725 11.5855 4.8 11.7688 4.95 11.9188L8 14.9938C8.15 15.1438 8.325 15.2188 8.525 15.2188C8.725 15.2188 8.9 15.1438 9.05 14.9938L15.025 9.01881C15.1917 8.85214 15.275 8.66048 15.275 8.44381C15.275 8.22714 15.1917 8.03548 15.025 7.86881C14.8583 7.71881 14.6625 7.64798 14.4375 7.65631C14.2125 7.66464 14.025 7.74381 13.875 7.89381L8.525 13.2438ZM10 20.9688C8.63333 20.9688 7.34167 20.7063 6.125 20.1813C4.90833 19.6563 3.84583 18.9396 2.9375 18.0313C2.02917 17.123 1.3125 16.0605 0.7875 14.8438C0.2625 13.6271 0 12.3355 0 10.9688C0 9.58548 0.2625 8.28548 0.7875 7.06881C1.3125 5.85214 2.02917 4.79381 2.9375 3.89381C3.84583 2.99381 4.90833 2.28131 6.125 1.75631C7.34167 1.23131 8.63333 0.968811 10 0.968811C11.3833 0.968811 12.6833 1.23131 13.9 1.75631C15.1167 2.28131 16.175 2.99381 17.075 3.89381C17.975 4.79381 18.6875 5.85214 19.2125 7.06881C19.7375 8.28548 20 9.58548 20 10.9688C20 12.3355 19.7375 13.6271 19.2125 14.8438C18.6875 16.0605 17.975 17.123 17.075 18.0313C16.175 18.9396 15.1167 19.6563 13.9 20.1813C12.6833 20.7063 11.3833 20.9688 10 20.9688ZM10 19.4688C12.3667 19.4688 14.375 18.6396 16.025 16.9813C17.675 15.323 18.5 13.3188 18.5 10.9688C18.5 8.60214 17.675 6.59381 16.025 4.94381C14.375 3.29381 12.3667 2.46881 10 2.46881C7.65 2.46881 5.64583 3.29381 3.9875 4.94381C2.32917 6.59381 1.5 8.60214 1.5 10.9688C1.5 13.3188 2.32917 15.323 3.9875 16.9813C5.64583 18.6396 7.65 19.4688 10 19.4688Z" fill="#FFC402"/>
</svg>
