<svg width="24" height="24" viewBox="0 0 24 24" fill="none" xmlns="http://www.w3.org/2000/svg">
<path d="M3.5 21.5C3.1 21.5 2.75 21.35 2.45 21.05C2.15 20.75 2 20.4 2 20V8C2 7.6 2.15 7.25 2.45 6.95C2.75 6.65 3.1 6.5 3.5 6.5H8V4C8 3.6 8.15 3.25 8.45 2.95C8.75 2.65 9.1 2.5 9.5 2.5H14.5C14.9 2.5 15.25 2.65 15.55 2.95C15.85 3.25 16 3.6 16 4V6.5H20.5C20.9 6.5 21.25 6.65 21.55 6.95C21.85 7.25 22 7.6 22 8V20C22 20.4 21.85 20.75 21.55 21.05C21.25 21.35 20.9 21.5 20.5 21.5H3.5ZM9.5 6.5H14.5V4H9.5V6.5ZM20.5 15.225H14.275V15.9794C14.275 16.1931 14.203 16.3708 14.0591 16.5125C13.9151 16.6542 13.7367 16.725 13.5238 16.725H10.5192C10.3064 16.725 10.1292 16.6531 9.9875 16.5094C9.84583 16.3656 9.775 16.1875 9.775 15.975V15.225H3.5V20H20.5V15.225ZM11.275 15.225H12.775V13.725H11.275V15.225ZM3.5 13.725H9.775V12.9706C9.775 12.7569 9.84698 12.5792 9.99095 12.4375C10.1349 12.2958 10.3133 12.225 10.5261 12.225H13.5307C13.7436 12.225 13.9208 12.2969 14.0625 12.4406C14.2042 12.5844 14.275 12.7625 14.275 12.975V13.725H20.5V8H3.5V13.725Z" fill="#D30034"/>
</svg>
